<svg width="42" height="42" viewBox="0 0 42 42" fill="none" xmlns="http://www.w3.org/2000/svg">
<rect width="42" height="42" rx="10" fill="white"/>
<rect x="0.5" y="0.5" width="41" height="41" rx="9.5" stroke="black" stroke-opacity="0.2"/>
<path fill-rule="evenodd" clip-rule="evenodd" d="M14.6904 17.1057C15.0692 17.0804 15.3968 17.3671 15.4221 17.7459L15.8437 24.0701C15.9261 25.3057 15.9848 26.1653 16.1136 26.8121C16.2386 27.4396 16.4131 27.7717 16.6637 28.0061C16.9143 28.2406 17.2573 28.3926 17.8916 28.4756C18.5456 28.5611 19.4073 28.5625 20.6455 28.5625H21.3545C22.5927 28.5625 23.4544 28.5611 24.1084 28.4756C24.7427 28.3926 25.0857 28.2406 25.3363 28.0061C25.5869 27.7717 25.7614 27.4396 25.8864 26.8121C26.0152 26.1653 26.0739 25.3057 26.1563 24.0701L26.5779 17.7459C26.6032 17.3671 26.9308 17.0804 27.3096 17.1057C27.6885 17.131 27.9751 17.4585 27.9499 17.8374L27.525 24.2098C27.4467 25.3857 27.3834 26.3355 27.2349 27.0808C27.0805 27.8557 26.818 28.5029 26.2757 29.0102C25.7334 29.5176 25.0701 29.7365 24.2867 29.839C23.5332 29.9375 22.5813 29.9375 21.4028 29.9375H20.5972C19.4187 29.9375 18.4668 29.9375 17.7133 29.839C16.9299 29.7365 16.2666 29.5176 15.7243 29.0102C15.182 28.5029 14.9195 27.8557 14.7651 27.0808C14.6166 26.3355 14.5533 25.3857 14.475 24.2098L14.0501 17.8374C14.0249 17.4585 14.3115 17.131 14.6904 17.1057Z" fill="black" fill-opacity="0.5"/>
<path fill-rule="evenodd" clip-rule="evenodd" d="M19.4923 12.0625L19.4502 12.0625C19.2518 12.0624 19.079 12.0623 18.9158 12.0883C18.2711 12.1913 17.7132 12.5934 17.4117 13.1724C17.3354 13.319 17.2808 13.483 17.2182 13.6712L17.2049 13.7112L17.1159 13.9782C17.0985 14.0304 17.0937 14.0448 17.0894 14.0564C16.9289 14.5002 16.5127 14.8002 16.041 14.8121C16.0286 14.8125 16.0134 14.8125 15.9583 14.8125H13.2083C12.8286 14.8125 12.5208 15.1203 12.5208 15.5C12.5208 15.8797 12.8286 16.1875 13.2083 16.1875L15.9662 16.1875L15.9815 16.1875H26.0185L26.0338 16.1875L28.7917 16.1875C29.1714 16.1875 29.4792 15.8797 29.4792 15.5C29.4792 15.1203 29.1714 14.8125 28.7917 14.8125H26.0417C25.9866 14.8125 25.9714 14.8125 25.959 14.8121C25.4873 14.8002 25.0711 14.5002 24.9105 14.0564C24.9064 14.0448 24.9014 14.0301 24.8841 13.9782L24.7951 13.7112L24.7818 13.6712C24.7192 13.4829 24.6646 13.319 24.5883 13.1724C24.2868 12.5934 23.7289 12.1913 23.0842 12.0883C22.921 12.0623 22.7482 12.0624 22.5498 12.0625L22.5077 12.0625H19.4923ZM18.3825 14.5242C18.3465 14.6237 18.3046 14.7199 18.2574 14.8125H23.7426C23.6954 14.7199 23.6536 14.6237 23.6176 14.5242L23.5821 14.4203L23.4906 14.146C23.4071 13.8953 23.3878 13.8441 23.3687 13.8075C23.2682 13.6145 23.0823 13.4804 22.8674 13.4461C22.8265 13.4396 22.772 13.4375 22.5077 13.4375H19.4923C19.228 13.4375 19.1734 13.4396 19.1326 13.4461C18.9177 13.4804 18.7318 13.6145 18.6313 13.8075C18.6122 13.8441 18.5929 13.8953 18.5094 14.146L18.4179 14.4204C18.4041 14.4618 18.3934 14.4939 18.3825 14.5242Z" fill="black" fill-opacity="0.5"/>
</svg>
