<svg width="42" height="42" viewBox="0 0 42 42" fill="none" xmlns="http://www.w3.org/2000/svg">
<rect width="42" height="42" rx="10" fill="white"/>
<rect x="0.5" y="0.5" width="41" height="41" rx="9.5" stroke="black" stroke-opacity="0.2"/>
<path fill-rule="evenodd" clip-rule="evenodd" d="M15.1557 14.0555C13.6349 14.7506 12.5208 16.404 12.5208 18.3757C12.5208 20.39 13.3451 21.9425 14.5268 23.2731C15.5007 24.3698 16.6796 25.2787 17.8294 26.1651C18.1024 26.3756 18.3739 26.5848 18.6405 26.7951C19.1227 27.1752 19.5529 27.5088 19.9675 27.7511C20.3823 27.9935 20.7162 28.1042 21 28.1042C21.2838 28.1042 21.6177 27.9935 22.0325 27.7511C22.4471 27.5088 22.8773 27.1752 23.3595 26.7951C23.6261 26.5848 23.8975 26.3756 24.1706 26.1651C25.3204 25.2787 26.4993 24.3698 27.4732 23.2731C28.6549 21.9425 29.4792 20.39 29.4792 18.3757C29.4792 16.404 28.3651 14.7506 26.8443 14.0555C25.3669 13.3802 23.3818 13.559 21.4953 15.519C21.3657 15.6537 21.1869 15.7297 21 15.7297C20.8131 15.7297 20.6343 15.6537 20.5047 15.519C18.6182 13.559 16.6331 13.3802 15.1557 14.0555ZM21 14.0872C18.8806 12.191 16.5074 11.9258 14.584 12.805C12.5527 13.7335 11.1458 15.8896 11.1458 18.3757C11.1458 20.8191 12.1638 22.683 13.4987 24.1861C14.5676 25.3899 15.876 26.3973 17.0316 27.287C17.2935 27.4887 17.5476 27.6844 17.7893 27.8749C18.2588 28.245 18.7629 28.6397 19.2738 28.9383C19.7844 29.2366 20.3671 29.4792 21 29.4792C21.6329 29.4792 22.2156 29.2366 22.7262 28.9383C23.2371 28.6397 23.7411 28.245 24.2107 27.8749C24.4524 27.6844 24.7065 27.4887 24.9684 27.287C26.124 26.3973 27.4324 25.3899 28.5013 24.1861C29.8362 22.683 30.8542 20.8191 30.8542 18.3757C30.8542 15.8896 29.4473 13.7335 27.416 12.805C25.4926 11.9258 23.1194 12.191 21 14.0872Z" fill="black"/>
</svg>
