<svg width="42" height="42" viewBox="0 0 42 42" fill="none" xmlns="http://www.w3.org/2000/svg">
<rect width="42" height="42" rx="10" fill="white"/>
<rect x="0.5" y="0.5" width="41" height="41" rx="9.5" stroke="black" stroke-opacity="0.2"/>
<path fill-rule="evenodd" clip-rule="evenodd" d="M15.1557 14.0555C13.635 14.7506 12.5209 16.404 12.5209 18.3757C12.5209 20.39 13.3452 21.9425 14.5268 23.2731C15.5007 24.3698 16.6796 25.2787 17.8294 26.1651C18.1025 26.3756 18.3739 26.5848 18.6406 26.7951C19.1228 27.1752 19.5529 27.5088 19.9675 27.7511C20.1571 27.8619 20.3298 27.9452 20.4886 28.0029L21.1553 25.3359L19.5972 23.7778C19.3432 23.5238 19.3276 23.117 19.5614 22.8442L21.8226 20.2062L19.2254 18.3511C18.9501 18.1545 18.8588 17.7867 19.0101 17.4842L20.1612 15.1825C18.3798 13.5405 16.5437 13.4211 15.1557 14.0555ZM21.5671 15.4454L20.5027 17.5737L23.233 19.5239C23.3899 19.636 23.4926 19.8089 23.5159 20.0004C23.5391 20.1918 23.4809 20.3843 23.3554 20.5307L21.0197 23.2557L22.4028 24.6389C22.5736 24.8096 22.6423 25.0575 22.5837 25.2917L21.9582 27.7936C21.9827 27.7799 22.0075 27.7657 22.0326 27.7511C22.4472 27.5088 22.8773 27.1752 23.3595 26.7951C23.6262 26.5848 23.8976 26.3756 24.1707 26.1651C25.3204 25.2787 26.4994 24.3698 27.4733 23.2731C28.6549 21.9425 29.4792 20.39 29.4792 18.3757C29.4792 16.404 28.3651 14.7506 26.8444 14.0555C25.3857 13.3887 23.4321 13.5546 21.5671 15.4454ZM21 14.0872C18.8807 12.191 16.5074 11.9258 14.5841 12.805C12.5527 13.7335 11.1459 15.8896 11.1459 18.3757C11.1459 20.8191 12.1638 22.683 13.4987 24.1861C14.5677 25.3899 15.8761 26.3973 17.0316 27.287C17.2936 27.4887 17.5477 27.6844 17.7893 27.8749C18.2589 28.245 18.763 28.6397 19.2738 28.9383C19.7844 29.2366 20.3672 29.4792 21 29.4792C21.6329 29.4792 22.2157 29.2366 22.7263 28.9383C23.2371 28.6397 23.7412 28.245 24.2107 27.8749C24.4524 27.6844 24.7065 27.4887 24.9685 27.287C26.124 26.3973 27.4324 25.3899 28.5014 24.1861C29.8363 22.683 30.8542 20.8191 30.8542 18.3757C30.8542 15.8896 29.4474 13.7335 27.416 12.805C25.4927 11.9258 23.1194 12.191 21 14.0872Z" fill="black"/>
</svg>
