<svg width="83" height="83" viewBox="0 0 83 83" fill="none" xmlns="http://www.w3.org/2000/svg">
<rect width="83" height="83" rx="20.1212" fill="white"/>
<path fill-rule="evenodd" clip-rule="evenodd" d="M33.6873 38.3226L44.3818 35.4408L37.8526 50.9984L54.1307 29.497L41.9502 32.7616L53.4101 15.8981L54.1531 16.0556C58.2283 16.8887 62.2359 18.127 66.1084 19.6579L66.8289 19.9281V20.6936C66.7389 39.4482 62.1684 61.5577 41.8377 67.9519L41.4999 68.042L41.1622 67.9519C20.8315 61.5577 16.261 39.4483 16.1709 20.6936V19.9281L16.8914 19.6579C26.7078 15.808 36.7268 14.0068 47.2412 14.9974L49.1099 15.1775L33.6873 38.3226Z" fill="white"/>
<path fill-rule="evenodd" clip-rule="evenodd" d="M54.8511 30.4199L35.6463 55.7939L33.6649 62.278L58.5436 29.4292L54.8511 30.4199Z" fill="url(#paint0_linear_16_12684)"/>
<path fill-rule="evenodd" clip-rule="evenodd" d="M57.2601 17.9468C56.1569 17.6316 55.0312 17.384 53.9055 17.1362L44.5845 30.8927L49.335 29.6319L57.2601 17.9468Z" fill="url(#paint1_linear_16_12684)"/>
<path fill-rule="evenodd" clip-rule="evenodd" d="M11.7131 16.9335C11.0152 44.604 19.098 66.7584 41.4999 72.7249C63.902 66.7585 71.9847 44.604 71.2869 16.9335C50.9562 7.97267 32.0664 7.97267 11.7131 16.9335ZM47.1286 16.1231L31.0983 40.1687L42.4681 37.1291L33.3271 58.8333L57.0125 27.5604L44.5844 30.8926L53.9054 17.1361C57.8005 17.9467 61.718 19.1399 65.7031 20.6935C65.6131 39.2682 61.1101 60.7021 41.4999 66.871C21.8897 60.702 17.3867 39.268 17.2968 20.6935C27.4959 16.7084 37.2672 15.1775 47.1286 16.1231Z" fill="url(#paint2_linear_16_12684)"/>
<defs>
<linearGradient id="paint0_linear_16_12684" x1="97.4237" y1="-6.81674" x2="24.0133" y2="66.5937" gradientUnits="userSpaceOnUse">
<stop stop-color="#808080"/>
<stop offset="1" stop-color="white"/>
</linearGradient>
<linearGradient id="paint1_linear_16_12684" x1="89.6224" y1="-14.6181" x2="16.212" y2="58.7923" gradientUnits="userSpaceOnUse">
<stop stop-color="#808080"/>
<stop offset="1" stop-color="white"/>
</linearGradient>
<linearGradient id="paint2_linear_16_12684" x1="41.5" y1="10.2129" x2="41.5" y2="72.7249" gradientUnits="userSpaceOnUse">
<stop stop-color="#6201FF"/>
<stop offset="1" stop-color="#700199"/>
</linearGradient>
</defs>
</svg>
