<svg width="42" height="42" viewBox="0 0 42 42" fill="none" xmlns="http://www.w3.org/2000/svg">
<rect width="42" height="42" rx="10" fill="white"/>
<rect x="0.5" y="0.5" width="41" height="41" rx="9.5" stroke="black" stroke-opacity="0.2"/>
<path fill-rule="evenodd" clip-rule="evenodd" d="M23.5269 12.403C25.2031 10.7268 27.9208 10.7268 29.597 12.403C31.2732 14.0792 31.2732 16.7969 29.597 18.4731L20.9021 27.168C20.4054 27.6648 20.113 27.9572 19.7876 28.2109C19.4042 28.51 18.9893 28.7664 18.5503 28.9756C18.1779 29.1531 17.7855 29.2839 17.119 29.506L14.0655 30.5239L13.3303 30.769C12.7339 30.9678 12.0764 30.8125 11.6319 30.368C11.1874 29.9236 11.0322 29.2661 11.231 28.6697L12.4939 24.881C12.7161 24.2145 12.8469 23.8221 13.0244 23.4497C13.2336 23.0107 13.49 22.5958 13.7891 22.2123C14.0428 21.887 14.3353 21.5946 14.8321 21.0978L23.5269 12.403ZM14.0338 29.0851L16.6385 28.2168C17.3637 27.9751 17.6718 27.8712 17.9588 27.7344C18.3076 27.5681 18.6373 27.3644 18.942 27.1267C19.1927 26.9312 19.4234 26.7021 19.964 26.1616L26.9026 19.2229C26.1797 18.9679 25.2484 18.4953 24.3765 17.6235C23.5047 16.7516 23.0321 15.8203 22.7771 15.0973L15.8384 22.036C15.2979 22.5766 15.0688 22.8073 14.8733 23.058C14.6356 23.3627 14.4318 23.6924 14.2656 24.0412C14.1288 24.3282 14.0249 24.6363 13.7831 25.3615L12.9149 27.9662L14.0338 29.0851ZM23.8924 13.982C23.9237 14.1424 23.9767 14.3604 24.0651 14.6153C24.2642 15.1891 24.6403 15.9426 25.3488 16.6512C26.0574 17.3597 26.8109 17.7358 27.3847 17.9348C27.6396 18.0233 27.8576 18.0763 28.018 18.1076L28.6247 17.5008C29.764 16.3616 29.764 14.5145 28.6247 13.3753C27.4855 12.236 25.6384 12.236 24.4992 13.3753L23.8924 13.982Z" fill="black" fill-opacity="0.5"/>
</svg>
