<svg width="26" height="26" viewBox="0 0 26 26" fill="none" xmlns="http://www.w3.org/2000/svg">
<path d="M13 19.2292C13.4487 19.2292 13.8125 18.8654 13.8125 18.4167V11.9167C13.8125 11.4679 13.4487 11.1042 13 11.1042C12.5512 11.1042 12.1875 11.4679 12.1875 11.9167V18.4167C12.1875 18.8654 12.5512 19.2292 13 19.2292Z" fill="white"/>
<path d="M13 7.58332C13.5983 7.58332 14.0833 8.06835 14.0833 8.66666C14.0833 9.26497 13.5983 9.74999 13 9.74999C12.4017 9.74999 11.9166 9.26497 11.9166 8.66666C11.9166 8.06835 12.4017 7.58332 13 7.58332Z" fill="white"/>
<path fill-rule="evenodd" clip-rule="evenodd" d="M1.35413 13C1.35413 6.56817 6.56814 1.35416 13 1.35416C19.4318 1.35416 24.6458 6.56817 24.6458 13C24.6458 19.4318 19.4318 24.6458 13 24.6458C6.56814 24.6458 1.35413 19.4318 1.35413 13ZM13 2.97916C7.46561 2.97916 2.97913 7.46564 2.97913 13C2.97913 18.5343 7.46561 23.0208 13 23.0208C18.5343 23.0208 23.0208 18.5343 23.0208 13C23.0208 7.46564 18.5343 2.97916 13 2.97916Z" fill="white"/>
</svg>
