<svg width="68" height="68" viewBox="0 0 68 68" fill="none" xmlns="http://www.w3.org/2000/svg">
<rect x="2.5" y="2.5" width="63" height="63" rx="31.5" fill="#B2B2B2"/>
<rect x="2.5" y="2.5" width="63" height="63" rx="31.5" stroke="white" stroke-width="5"/>
<path d="M21.7393 34.4238C21.7393 33.9746 21.9004 33.5889 22.2227 33.2666C22.5449 32.9346 22.9307 32.7686 23.3799 32.7686H32.3594V23.8037C32.3594 23.3545 32.5205 22.9688 32.8428 22.6465C33.165 22.3242 33.5508 22.1631 34 22.1631C34.459 22.1631 34.8496 22.3242 35.1719 22.6465C35.4941 22.9688 35.6553 23.3545 35.6553 23.8037V32.7686H44.6201C45.0693 32.7686 45.4551 32.9346 45.7773 33.2666C46.0996 33.5889 46.2607 33.9746 46.2607 34.4238C46.2607 34.8828 46.0996 35.2734 45.7773 35.5957C45.4551 35.9082 45.0693 36.0645 44.6201 36.0645H35.6553V45.0586C35.6553 45.498 35.4941 45.8789 35.1719 46.2012C34.8496 46.5234 34.459 46.6846 34 46.6846C33.5508 46.6846 33.165 46.5234 32.8428 46.2012C32.5205 45.8789 32.3594 45.498 32.3594 45.0586V36.0645H23.3799C22.9307 36.0645 22.5449 35.9082 22.2227 35.5957C21.9004 35.2734 21.7393 34.8828 21.7393 34.4238Z" fill="white"/>
</svg>
